# xmcd CD database file
#
# Track frame offsets:
#	150
#	12832
#	25023
#	36079
#	47238
#	61598
#	72164
#	82212
#	93640
#	106175
#	120342
#	128802
#	137995
#	148523
#	166579
#	180296
#	194870
#	203877
#	215433
#	228290
#
# Disc length: 3221 seconds
#
# Revision: 4
# Processed by: cddbd v1.5.2PL0 Copyright (c) Steve Scherf et al.
# Submitted via: CDex 1.95
#
DISCID=120c9314
DTITLE=Various Artist - Golden Country Hits Vol24 Cd2
DYEAR=1999
DGENRE=Oldies
TTITLE0=Faron Young - There Goes My Everything
TTITLE1=Terri Gibbs - Ashes To Ashes
TTITLE2=Willie Nelson - I Hope So
TTITLE3=Carl Perkins - Sing A Song
TTITLE4=Barbara Fairchild - Slilppin' Away
TTITLE5=Conway Twitty - Turn The Other Cheek
TTITLE6=Jimmy Dean - That New Old Fashioned Love
TTITLE7=Glen Yarborough - All Around My Hat-Poor LBoy
TTITLE8=Gail Davies - You Turn Me On, I'm A Radio
TTITLE9=George Jones - Open Pity Mind
TTITLE10=Jim Reeves - The Windup Doll
TTITLE11=Freddy Fender - Mathilda
TTITLE12=Faron Young - Goin' Steady
TTITLE13=Barbara Failrchild - Love Is Laughing Child
TTITLE14=Merle Haggard - Mama Tried
TTITLE15=Hoyt Axton - Evangelina
TTITLE16=Danny Davis and The Nashville Brass - San Antonio Rose
TTITLE17=Mickey Gilley - You Can Count Me Missing
TTITLE18=Willie Nelson - A Moment Isn't Very Long
TTITLE19=Oak Ridge Boys - Gypsy Boy
EXTD=Disc 48 of 50 YEAR: 1999
EXTT0=
EXTT1=
EXTT2=
EXTT3=
EXTT4=
EXTT5=
EXTT6=
EXTT7=
EXTT8=
EXTT9=
EXTT10=
EXTT11=
EXTT12=
EXTT13=
EXTT14=
EXTT15=
EXTT16=
EXTT17=
EXTT18=
EXTT19=
PLAYORDER=
